<svg width="18" height="18" viewBox="0 0 18 18" fill="none" xmlns="http://www.w3.org/2000/svg">
<g clip-path="url(#clip0_332_2145)">
<path d="M17.811 3.36132C17.6205 3.26832 17.538 3.44607 17.427 3.53682C17.3887 3.56607 17.3565 3.60432 17.3242 3.63882C17.0452 3.93657 16.7197 4.13157 16.2945 4.10832C15.6727 4.07382 15.1417 4.26882 14.6722 4.74432C14.5725 4.15782 14.241 3.80832 13.737 3.58332C13.473 3.46632 13.206 3.35007 13.0207 3.09582C12.8917 2.91507 12.8565 2.71332 12.792 2.51532C12.7507 2.39532 12.7095 2.27307 12.5722 2.25282C12.4222 2.22957 12.3637 2.35482 12.3052 2.45982C12.0705 2.88882 11.9797 3.36132 11.9887 3.83982C12.009 4.91682 12.4635 5.77482 13.3672 6.38457C13.47 6.45432 13.4962 6.52482 13.464 6.62682C13.4025 6.83682 13.329 7.04082 13.2645 7.25157C13.2232 7.38582 13.1617 7.41432 13.0177 7.35657C12.5312 7.14746 12.0892 6.84704 11.7157 6.47157C11.073 5.85057 10.4925 5.16507 9.76796 4.62807C9.6001 4.50403 9.42773 4.3862 9.25121 4.27482C8.51246 3.55707 9.34871 2.96757 9.54221 2.89782C9.74471 2.82432 9.61196 2.57382 8.95796 2.57682C8.30396 2.57982 7.70546 2.79807 6.94271 3.08982C6.82937 3.13325 6.71275 3.16761 6.59396 3.19257C5.88118 3.05827 5.1522 3.03248 4.43171 3.11607C3.01796 3.27357 1.88921 3.94257 1.05896 5.08332C0.0614622 6.45432 -0.173288 8.01282 0.113962 9.63732C0.416212 11.3503 1.29071 12.7686 2.63396 13.8771C4.02746 15.0268 5.63171 15.5901 7.46246 15.4821C8.57396 15.4183 9.81221 15.2691 11.208 14.0871C11.5605 14.2626 11.9295 14.3323 12.543 14.3848C13.0155 14.4291 13.47 14.3623 13.8217 14.2888C14.373 14.1718 14.3347 13.6611 14.136 13.5681C12.5197 12.8151 12.8745 13.1218 12.5512 12.8736C13.3732 11.9016 14.6107 10.8921 15.0952 7.62132C15.1327 7.36107 15.1005 7.19757 15.0952 6.98757C15.0922 6.86007 15.1215 6.80982 15.2677 6.79557C15.6735 6.75347 16.0671 6.63245 16.4265 6.43932C17.4735 5.86707 17.8965 4.92807 17.9962 3.80157C18.0112 3.62907 17.9932 3.45207 17.811 3.36132ZM8.68571 13.4998C7.11896 12.2683 6.35921 11.8626 6.04571 11.8798C5.75171 11.8978 5.80496 12.2331 5.86946 12.4521C5.93696 12.6681 6.02471 12.8166 6.14771 13.0063C6.23321 13.1316 6.29171 13.3183 6.06296 13.4586C5.55821 13.7706 4.68146 13.3536 4.64021 13.3333C3.61946 12.7318 2.76521 11.9383 2.16446 10.8531C1.58396 9.80832 1.24646 8.68782 1.19096 7.49157C1.17596 7.20207 1.26071 7.10007 1.54871 7.04757C1.9268 6.97521 2.31418 6.96533 2.69546 7.01832C4.29446 7.25232 5.65496 7.96707 6.79646 9.09882C7.44746 9.74382 7.94021 10.5141 8.44796 11.2671C8.98796 12.0666 9.56846 12.8286 10.308 13.4526C10.569 13.6716 10.7767 13.8381 10.9762 13.9603C10.3747 14.0278 9.37121 14.0428 8.68571 13.4998ZM9.43571 8.66982C9.43558 8.63256 9.44452 8.59583 9.46177 8.56281C9.47901 8.52978 9.50403 8.50145 9.53467 8.48025C9.56531 8.45906 9.60066 8.44565 9.63764 8.44117C9.67463 8.4367 9.71215 8.4413 9.74696 8.45457C9.79133 8.47048 9.82963 8.49985 9.85652 8.53857C9.88341 8.57729 9.89755 8.62343 9.89696 8.67057C9.89706 8.70102 9.8911 8.73119 9.87943 8.75932C9.86775 8.78745 9.85059 8.81297 9.82895 8.8344C9.80731 8.85583 9.78162 8.87274 9.75338 8.88415C9.72514 8.89555 9.69491 8.90122 9.66446 8.90082C9.63424 8.90092 9.6043 8.89499 9.57639 8.88338C9.54849 8.87178 9.52318 8.85472 9.50194 8.8332C9.48071 8.81169 9.46399 8.78616 9.45274 8.75811C9.4415 8.73005 9.43521 8.70004 9.43571 8.66982ZM11.7682 9.86682C11.6182 9.92757 11.469 9.98007 11.3257 9.98682C11.1102 9.99433 10.8987 9.92702 10.7272 9.79632C10.5217 9.62382 10.3747 9.52782 10.3132 9.22782C10.292 9.08121 10.2961 8.93205 10.3252 8.78682C10.3777 8.54157 10.3192 8.38407 10.146 8.24157C10.0057 8.12457 9.82646 8.09232 9.62996 8.09232C9.56268 8.08841 9.49734 8.06834 9.43946 8.03382C9.35696 7.99332 9.28946 7.89132 9.35396 7.76532C9.37496 7.72482 9.47396 7.62582 9.49796 7.60782C9.76496 7.45632 10.0732 7.50582 10.3575 7.61982C10.6215 7.72782 10.821 7.92582 11.1082 8.20632C11.4015 8.54457 11.4547 8.63832 11.622 8.89182C11.754 9.09057 11.874 9.29457 11.9557 9.52782C12.006 9.67407 11.9415 9.79332 11.7682 9.86682Z" fill="#4D6BFE"/>
</g>
<defs>
<clipPath id="clip0_332_2145">
<rect width="18" height="18" fill="white"/>
</clipPath>
</defs>
</svg>
