<svg xmlns="http://www.w3.org/2000/svg" viewBox="0 0 512 512" width="512" height="512">
  <defs>
    <linearGradient id="grad1" x1="0%" y1="0%" x2="100%" y2="100%">
      <stop offset="0%" style="stop-color:#2b1055;stop-opacity:1" />
      <stop offset="100%" style="stop-color:#7597de;stop-opacity:1" />
    </linearGradient>
    <linearGradient id="grad2" x1="100%" y1="0%" x2="0%" y2="100%">
      <stop offset="0%" style="stop-color:#00ffff;stop-opacity:1" />
      <stop offset="100%" style="stop-color:#ff00ff;stop-opacity:1" />
    </linearGradient>
  </defs>
  <rect width="512" height="512" rx="100" fill="url(#grad1)"/>
  
  <path d="M 256 136 L 360 196 L 360 316 L 256 376 L 152 316 L 152 196 Z" fill="none" stroke="url(#grad2)" stroke-width="24" stroke-linejoin="round"/>
  
  <path d="M 256 136 L 256 376 M 152 196 L 360 316 M 152 316 L 360 196" stroke="rgba(255,255,255,0.2)" stroke-width="8"/>
  
  <circle cx="256" cy="136" r="20" fill="#fff"/>
  <circle cx="360" cy="196" r="20" fill="#fff"/>
  <circle cx="360" cy="316" r="20" fill="#fff"/>
  <circle cx="256" cy="376" r="20" fill="#fff"/>
  <circle cx="152" cy="316" r="20" fill="#fff"/>
  <circle cx="152" cy="196" r="20" fill="#fff"/>
  
  <circle cx="256" cy="256" r="32" fill="url(#grad2)"/>
  <circle cx="256" cy="256" r="12" fill="#fff"/>
</svg>
