<svg width="22" height="22" viewBox="0 0 22 22" fill="none" xmlns="http://www.w3.org/2000/svg">
<path d="M11.5535 1.22832C11.9137 1.86082 12.2721 2.49516 12.6296 3.13041C12.6441 3.15581 12.665 3.17692 12.6903 3.19158C12.7156 3.20623 12.7443 3.21391 12.7735 3.21382H17.8629C18.0224 3.21382 18.158 3.31466 18.2717 3.51357L19.6045 5.86941C19.7787 6.17832 19.8245 6.30757 19.6265 6.63666C19.3882 7.03082 19.1563 7.42866 18.9299 7.82832L18.5935 8.43149C18.4963 8.61115 18.389 8.68815 18.5568 8.90082L20.9878 13.1514C21.1455 13.4273 21.0895 13.6042 20.9484 13.8572C20.5478 14.5768 20.1399 15.2909 19.7246 16.0022C19.5789 16.2516 19.402 16.346 19.1013 16.3414C18.389 16.3267 17.6786 16.3322 16.9682 16.3561C16.953 16.3569 16.9382 16.3615 16.9252 16.3695C16.9122 16.3775 16.9015 16.3886 16.894 16.4019C16.0743 17.8542 15.2478 19.3025 14.4144 20.7469C14.2595 21.0155 14.066 21.0797 13.7498 21.0806C12.8359 21.0833 11.9146 21.0842 10.9842 21.0824C10.8976 21.0822 10.8126 21.0591 10.7377 21.0155C10.6629 20.9718 10.6009 20.9092 10.558 20.834L9.33421 18.7046C9.32709 18.6906 9.31616 18.679 9.30269 18.6711C9.28922 18.6631 9.27377 18.6592 9.25813 18.6597H4.56663C4.30538 18.6872 4.05971 18.6587 3.82871 18.5753L2.3593 16.0362C2.31584 15.961 2.29281 15.8757 2.29248 15.7889C2.29216 15.7021 2.31456 15.6167 2.35746 15.5412L3.46388 13.5978C3.47964 13.5703 3.48793 13.5392 3.48793 13.5075C3.48793 13.4758 3.47964 13.4447 3.46388 13.4172C2.88754 12.4194 2.31462 11.4196 1.74513 10.4179L1.02096 9.13916C0.874296 8.85499 0.86238 8.68449 1.10805 8.25457C1.5343 7.50932 1.9578 6.76499 2.37946 6.02157C2.50046 5.80707 2.65813 5.71541 2.9148 5.71449C3.70588 5.71116 4.49696 5.71085 5.28805 5.71357C5.30803 5.71342 5.32762 5.708 5.34484 5.69786C5.36206 5.68772 5.3763 5.67322 5.38613 5.65582L7.9583 1.16874C7.99728 1.10048 8.05356 1.04369 8.12147 1.00411C8.18938 0.964518 8.26652 0.943524 8.34513 0.943239C8.82546 0.942322 9.31038 0.943239 9.79621 0.937739L10.7285 0.916655C11.041 0.913905 11.3921 0.945989 11.5535 1.22832ZM8.40746 1.59774C8.3978 1.59773 8.38831 1.60027 8.37994 1.6051C8.37158 1.60993 8.36463 1.61687 8.3598 1.62524L5.73263 6.22232C5.72002 6.24399 5.70196 6.26198 5.68026 6.27452C5.65855 6.28706 5.63395 6.29371 5.60888 6.29382H2.98171C2.93038 6.29382 2.91755 6.31674 2.94413 6.36166L8.26996 15.6713C8.29288 15.7098 8.28188 15.7282 8.2388 15.7291L5.67671 15.7428C5.63926 15.7416 5.60221 15.7509 5.56979 15.7697C5.53737 15.7885 5.51089 15.816 5.49338 15.8492L4.28338 17.9667C4.24305 18.0382 4.26413 18.0748 4.34571 18.0748L9.58538 18.0822C9.62755 18.0822 9.65871 18.1005 9.68071 18.1381L10.9668 20.3876C11.009 20.4618 11.0511 20.4627 11.0942 20.3876L15.683 12.3576L16.4008 11.0907C16.4052 11.0829 16.4116 11.0764 16.4193 11.0719C16.427 11.0673 16.4358 11.0649 16.4448 11.0649C16.4538 11.0649 16.4626 11.0673 16.4703 11.0719C16.478 11.0764 16.4844 11.0829 16.4888 11.0907L17.7941 13.4099C17.8039 13.4273 17.8182 13.4417 17.8354 13.4517C17.8527 13.4617 17.8723 13.4669 17.8922 13.4667L20.425 13.4484C20.4315 13.4485 20.4378 13.4468 20.4435 13.4436C20.4491 13.4404 20.4538 13.4357 20.457 13.4301C20.4602 13.4245 20.4618 13.4182 20.4618 13.4117C20.4618 13.4053 20.4602 13.399 20.457 13.3934L17.7987 8.73124C17.7891 8.71566 17.7841 8.69773 17.7841 8.67945C17.7841 8.66116 17.7891 8.64324 17.7987 8.62765L18.0673 8.16291L19.094 6.35066C19.116 6.31307 19.105 6.29382 19.0619 6.29382H8.43313C8.37905 6.29382 8.36621 6.26999 8.39371 6.22324L9.70821 3.92699C9.71806 3.91134 9.72329 3.89323 9.72329 3.87474C9.72329 3.85625 9.71806 3.83814 9.70821 3.82249L8.45605 1.62616C8.45126 1.61748 8.44422 1.61026 8.43567 1.60526C8.42711 1.60026 8.41737 1.59766 8.40746 1.59774ZM14.1733 8.9494C14.2155 8.9494 14.2265 8.96774 14.2045 9.00441L13.4418 10.3473L11.0465 14.5502C11.042 14.5584 11.0354 14.5652 11.0273 14.5699C11.0192 14.5746 11.01 14.577 11.0007 14.5768C10.9914 14.5768 10.9823 14.5743 10.9742 14.5696C10.9662 14.565 10.9595 14.5583 10.9549 14.5502L7.78963 9.0209C7.7713 8.98974 7.78046 8.97324 7.8153 8.9714L8.0133 8.9604L14.1751 8.9494H14.1733Z" fill="url(#paint0_linear_4151_3680)"/>
<defs>
<linearGradient id="paint0_linear_4151_3680" x1="0.916016" y1="0.916504" x2="2017.61" y2="0.916504" gradientUnits="userSpaceOnUse">
<stop stop-color="#6336E7" stop-opacity="0.84"/>
<stop offset="1" stop-color="#6F69F7" stop-opacity="0.84"/>
</linearGradient>
</defs>
</svg>
